<svg width="216" height="32" viewBox="0 0 216 32" fill="none" xmlns="http://www.w3.org/2000/svg" role="img" aria-label="AccessibilityChecker.org">
    <title>AccessibilityChecker.org</title>
    <path d="M25.8146 22.7792L31.6797 28.5537L28.179 32.0004L22.3139 26.2258L25.8146 22.7792Z" fill="#1DBE7A"></path>
    <path fill-rule="evenodd" clip-rule="evenodd" d="M13.888 25.0057C13.3794 24.9818 12.8713 24.9203 12.3679 24.8206C10.3974 24.4303 8.58866 23.4734 7.17049 22.071C5.75228 20.6686 4.78828 18.8837 4.40047 16.9419C4.01261 15.0001 4.21831 12.9887 4.99152 11.162C5.76476 9.33533 7.07082 7.7754 8.74449 6.67952L6.41344 3.22852C4.04651 4.77833 2.19952 6.98437 1.10601 9.56768C0.0125063 12.151 -0.278391 14.9955 0.270106 17.7416C0.818605 20.4877 2.18186 23.012 4.1875 24.9953C6.19313 26.9785 8.75102 28.3317 11.5378 28.8836C14.3245 29.4356 17.2149 29.1615 19.8434 28.0961C22.472 27.0308 24.7206 25.2219 26.305 22.8982C27.8894 20.5746 28.7383 17.8406 28.7445 15.0419C28.7474 13.7352 28.5664 12.4417 28.2125 11.1969L24.5332 14.8194C24.5346 14.8905 24.5352 14.9617 24.535 15.0329C24.5307 17.0119 23.9304 18.9451 22.81 20.5882C21.6897 22.2313 20.0996 23.5104 18.241 24.2637C16.9471 24.7881 15.5636 25.0414 14.1774 25.0153L14.0376 25.1529L13.888 25.0057Z" fill="#1DBE7A"></path>
    <path fill-rule="evenodd" clip-rule="evenodd" d="M21.6523 2.809C19.3052 1.45144 16.5945 0.767005 13.8316 0.869401C10.0226 1.01057 6.42647 2.63574 3.83446 5.38738C1.24243 8.13905 -0.1332 11.7918 0.0101827 15.5421C0.153566 19.2923 1.80422 22.8329 4.599 25.3849L7.46146 22.3461C5.48525 20.5416 4.31805 18.038 4.21666 15.3861C4.11526 12.7343 5.08799 10.1514 6.92083 8.20568C8.7537 6.25995 11.2965 5.11077 13.99 5.01094C15.5667 4.95251 17.1196 5.25649 18.5325 5.88065L21.6523 2.809Z" fill="#5EF1B3"></path>
    <path d="M8.47883 10.4501L17.1863 16.9834L14.5275 20.3727L7.54024 11.3591L8.47883 10.4501Z" fill="#3A3A3A"></path>
    <path d="M29.6105 0.922141L11.8036 16.6251L14.6186 20.3714L30.5491 1.83116L29.6105 0.922141Z" fill="#3A3A3A"></path>
    <path d="M36.1705 21L40.154 9.4525H42.882L46.8655 21H44.5715L43.75 18.52H39.286L38.449 21H36.1705ZM39.8905 16.66H43.1455L41.2235 10.9095H41.8125L39.8905 16.66ZM51.2734 21.186C50.4364 21.186 49.6821 20.9948 49.0104 20.6125C48.3491 20.2198 47.8273 19.6928 47.4449 19.0315C47.0626 18.3598 46.8714 17.6055 46.8714 16.7685C46.8714 15.9315 47.0626 15.1823 47.4449 14.521C47.8273 13.8597 48.3491 13.3378 49.0104 12.9555C49.6821 12.5732 50.4364 12.382 51.2734 12.382C51.8728 12.382 52.4308 12.4905 52.9474 12.7075C53.4641 12.9142 53.9084 13.2035 54.2804 13.5755C54.6628 13.9372 54.9366 14.3712 55.1019 14.8775L53.3194 15.6525C53.1644 15.2288 52.9009 14.8878 52.5289 14.6295C52.1673 14.3712 51.7488 14.242 51.2734 14.242C50.8291 14.242 50.4313 14.3505 50.0799 14.5675C49.7389 14.7845 49.4703 15.0842 49.2739 15.4665C49.0776 15.8488 48.9794 16.288 48.9794 16.784C48.9794 17.28 49.0776 17.7192 49.2739 18.1015C49.4703 18.4838 49.7389 18.7835 50.0799 19.0005C50.4313 19.2175 50.8291 19.326 51.2734 19.326C51.7591 19.326 52.1828 19.1968 52.5444 18.9385C52.9061 18.6802 53.1644 18.334 53.3194 17.9L55.1019 18.706C54.9366 19.1813 54.6679 19.6102 54.2959 19.9925C53.9239 20.3645 53.4796 20.659 52.9629 20.876C52.4463 21.0827 51.8831 21.186 51.2734 21.186ZM60.2386 21.186C59.4016 21.186 58.6473 20.9948 57.9756 20.6125C57.3143 20.2198 56.7924 19.6928 56.4101 19.0315C56.0278 18.3598 55.8366 17.6055 55.8366 16.7685C55.8366 15.9315 56.0278 15.1823 56.4101 14.521C56.7924 13.8597 57.3143 13.3378 57.9756 12.9555C58.6473 12.5732 59.4016 12.382 60.2386 12.382C60.8379 12.382 61.3959 12.4905 61.9126 12.7075C62.4293 12.9142 62.8736 13.2035 63.2456 13.5755C63.6279 13.9372 63.9018 14.3712 64.0671 14.8775L62.2846 15.6525C62.1296 15.2288 61.8661 14.8878 61.4941 14.6295C61.1324 14.3712 60.7139 14.242 60.2386 14.242C59.7943 14.242 59.3964 14.3505 59.0451 14.5675C58.7041 14.7845 58.4354 15.0842 58.2391 15.4665C58.0428 15.8488 57.9446 16.288 57.9446 16.784C57.9446 17.28 58.0428 17.7192 58.2391 18.1015C58.4354 18.4838 58.7041 18.7835 59.0451 19.0005C59.3964 19.2175 59.7943 19.326 60.2386 19.326C60.7243 19.326 61.1479 19.1968 61.5096 18.9385C61.8713 18.6802 62.1296 18.334 62.2846 17.9L64.0671 18.706C63.9018 19.1813 63.6331 19.6102 63.2611 19.9925C62.8891 20.3645 62.4448 20.659 61.9281 20.876C61.4114 21.0827 60.8483 21.186 60.2386 21.186ZM69.1418 21.186C68.2738 21.186 67.5143 20.9897 66.8633 20.597C66.2123 20.2043 65.706 19.6722 65.3443 19.0005C64.9826 18.3288 64.8018 17.5848 64.8018 16.7685C64.8018 15.9212 64.9826 15.172 65.3443 14.521C65.7163 13.8597 66.2175 13.3378 66.8478 12.9555C67.4885 12.5732 68.2015 12.382 68.9868 12.382C69.6481 12.382 70.2268 12.4905 70.7228 12.7075C71.2291 12.9245 71.658 13.2242 72.0093 13.6065C72.3606 13.9888 72.6293 14.428 72.8153 14.924C73.0013 15.4097 73.0943 15.9367 73.0943 16.505C73.0943 16.6497 73.084 16.7995 73.0633 16.9545C73.053 17.1095 73.0271 17.2438 72.9858 17.3575H66.4758V15.8075H71.8388L70.8778 16.536C70.9708 16.0607 70.945 15.637 70.8003 15.265C70.666 14.893 70.4386 14.5985 70.1183 14.3815C69.8083 14.1645 69.4311 14.056 68.9868 14.056C68.5631 14.056 68.186 14.1645 67.8553 14.3815C67.5246 14.5882 67.2715 14.8982 67.0958 15.3115C66.9305 15.7145 66.8685 16.2053 66.9098 16.784C66.8685 17.3007 66.9356 17.7605 67.1113 18.1635C67.2973 18.5562 67.566 18.861 67.9173 19.078C68.279 19.295 68.6923 19.4035 69.1573 19.4035C69.6223 19.4035 70.015 19.3053 70.3353 19.109C70.666 18.9127 70.9243 18.6492 71.1103 18.3185L72.7533 19.1245C72.588 19.5275 72.3296 19.884 71.9783 20.194C71.627 20.504 71.2085 20.7468 70.7228 20.9225C70.2475 21.0982 69.7205 21.186 69.1418 21.186ZM77.377 21.186C76.478 21.186 75.6927 20.9742 75.021 20.5505C74.3597 20.1165 73.905 19.5327 73.657 18.799L75.176 18.0705C75.393 18.5458 75.6927 18.9178 76.075 19.1865C76.4677 19.4552 76.9017 19.5895 77.377 19.5895C77.749 19.5895 78.0435 19.5068 78.2605 19.3415C78.4775 19.1762 78.586 18.9592 78.586 18.6905C78.586 18.5252 78.5395 18.3908 78.4465 18.2875C78.3638 18.1738 78.245 18.0808 78.09 18.0085C77.9453 17.9258 77.7852 17.8587 77.6095 17.807L76.23 17.4195C75.517 17.2128 74.9745 16.8977 74.6025 16.474C74.2408 16.0503 74.06 15.5492 74.06 14.9705C74.06 14.4538 74.1892 14.0043 74.4475 13.622C74.7162 13.2293 75.083 12.9245 75.548 12.7075C76.0233 12.4905 76.5658 12.382 77.1755 12.382C77.9712 12.382 78.6738 12.5732 79.2835 12.9555C79.8932 13.3378 80.3272 13.8752 80.5855 14.5675L79.0355 15.296C78.8908 14.9137 78.648 14.6088 78.307 14.3815C77.966 14.1542 77.5837 14.0405 77.16 14.0405C76.819 14.0405 76.5503 14.118 76.354 14.273C76.1577 14.428 76.0595 14.6295 76.0595 14.8775C76.0595 15.0325 76.1008 15.1668 76.1835 15.2805C76.2662 15.3942 76.3798 15.4872 76.5245 15.5595C76.6795 15.6318 76.8552 15.699 77.0515 15.761L78.4 16.164C79.0923 16.3707 79.6245 16.6807 79.9965 17.094C80.3788 17.5073 80.57 18.0137 80.57 18.613C80.57 19.1193 80.4357 19.5688 80.167 19.9615C79.8983 20.3438 79.5263 20.6435 79.051 20.8605C78.5757 21.0775 78.0177 21.186 77.377 21.186ZM84.8739 21.186C83.9749 21.186 83.1896 20.9742 82.5179 20.5505C81.8566 20.1165 81.4019 19.5327 81.1539 18.799L82.6729 18.0705C82.8899 18.5458 83.1896 18.9178 83.5719 19.1865C83.9646 19.4552 84.3986 19.5895 84.8739 19.5895C85.2459 19.5895 85.5404 19.5068 85.7574 19.3415C85.9744 19.1762 86.0829 18.9592 86.0829 18.6905C86.0829 18.5252 86.0364 18.3908 85.9434 18.2875C85.8608 18.1738 85.7419 18.0808 85.5869 18.0085C85.4423 17.9258 85.2821 17.8587 85.1064 17.807L83.7269 17.4195C83.0139 17.2128 82.4714 16.8977 82.0994 16.474C81.7378 16.0503 81.5569 15.5492 81.5569 14.9705C81.5569 14.4538 81.6861 14.0043 81.9444 13.622C82.2131 13.2293 82.5799 12.9245 83.0449 12.7075C83.5203 12.4905 84.0628 12.382 84.6724 12.382C85.4681 12.382 86.1708 12.5732 86.7804 12.9555C87.3901 13.3378 87.8241 13.8752 88.0824 14.5675L86.5324 15.296C86.3878 14.9137 86.1449 14.6088 85.8039 14.3815C85.4629 14.1542 85.0806 14.0405 84.6569 14.0405C84.3159 14.0405 84.0473 14.118 83.8509 14.273C83.6546 14.428 83.5564 14.6295 83.5564 14.8775C83.5564 15.0325 83.5978 15.1668 83.6804 15.2805C83.7631 15.3942 83.8768 15.4872 84.0214 15.5595C84.1764 15.6318 84.3521 15.699 84.5484 15.761L85.8969 16.164C86.5893 16.3707 87.1214 16.6807 87.4934 17.094C87.8758 17.5073 88.0669 18.0137 88.0669 18.613C88.0669 19.1193 87.9326 19.5688 87.6639 19.9615C87.3953 20.3438 87.0233 20.6435 86.5479 20.8605C86.0726 21.0775 85.5146 21.186 84.8739 21.186ZM89.1623 21V12.568H91.1928V21H89.1623ZM89.1623 11.6225V9.4525H91.1928V11.6225H89.1623ZM97.2061 21.186C96.5964 21.186 96.0333 21.0672 95.5166 20.8295C95.0103 20.5815 94.6073 20.2302 94.3076 19.7755L94.5091 19.3725V21H92.6026V9.2665H94.6331V14.242L94.3231 13.8235C94.6124 13.3688 95.0051 13.0175 95.5011 12.7695C95.9971 12.5112 96.5706 12.382 97.2216 12.382C98.0173 12.382 98.7354 12.5783 99.3761 12.971C100.017 13.3637 100.523 13.8907 100.895 14.552C101.277 15.2133 101.469 15.9573 101.469 16.784C101.469 17.6003 101.283 18.3443 100.911 19.016C100.539 19.6877 100.032 20.2198 99.3916 20.6125C98.7509 20.9948 98.0224 21.186 97.2061 21.186ZM96.9736 19.326C97.4386 19.326 97.8519 19.2175 98.2136 19.0005C98.5753 18.7835 98.8543 18.4838 99.0506 18.1015C99.2573 17.7192 99.3606 17.28 99.3606 16.784C99.3606 16.288 99.2573 15.854 99.0506 15.482C98.8543 15.0997 98.5753 14.8 98.2136 14.583C97.8519 14.3557 97.4386 14.242 96.9736 14.242C96.5293 14.242 96.1263 14.3505 95.7646 14.5675C95.4133 14.7845 95.1343 15.0893 94.9276 15.482C94.7313 15.8643 94.6331 16.2983 94.6331 16.784C94.6331 17.28 94.7313 17.7192 94.9276 18.1015C95.1343 18.4838 95.4133 18.7835 95.7646 19.0005C96.1263 19.2175 96.5293 19.326 96.9736 19.326ZM102.552 21V12.568H104.582V21H102.552ZM102.552 11.6225V9.4525H104.582V11.6225H102.552ZM105.992 21V9.2665H108.022V21H105.992ZM109.432 21V12.568H111.463V21H109.432ZM109.432 11.6225V9.4525H111.463V11.6225H109.432ZM116.716 21.093C115.766 21.093 115.027 20.8347 114.5 20.318C113.983 19.791 113.725 19.0522 113.725 18.1015V14.3815H112.268V12.568H112.423C112.836 12.568 113.157 12.4595 113.384 12.2425C113.611 12.0255 113.725 11.7103 113.725 11.297V10.646H115.755V12.568H117.693V14.3815H115.755V17.993C115.755 18.272 115.802 18.5097 115.895 18.706C115.998 18.9023 116.153 19.0522 116.36 19.1555C116.577 19.2588 116.851 19.3105 117.181 19.3105C117.254 19.3105 117.336 19.3053 117.429 19.295C117.533 19.2847 117.631 19.2743 117.724 19.264V21C117.579 21.0207 117.414 21.0413 117.228 21.062C117.042 21.0827 116.871 21.093 116.716 21.093ZM119.833 24.41C119.606 24.41 119.384 24.3893 119.167 24.348C118.95 24.317 118.753 24.255 118.578 24.162V22.4725C118.712 22.5035 118.872 22.5345 119.058 22.5655C119.255 22.5965 119.435 22.612 119.601 22.612C120.066 22.612 120.402 22.5035 120.608 22.2865C120.825 22.0798 121.016 21.8008 121.182 21.4495L121.74 20.1475L121.709 21.8525L118.035 12.568H120.221L122.794 19.419H122.019L124.576 12.568H126.777L123.104 21.8525C122.887 22.3898 122.623 22.8497 122.313 23.232C122.003 23.6143 121.642 23.9037 121.228 24.1C120.825 24.3067 120.36 24.41 119.833 24.41ZM133.054 21.186C132.238 21.186 131.478 21.0362 130.775 20.7365C130.083 20.4368 129.479 20.0235 128.962 19.4965C128.456 18.9592 128.058 18.3288 127.768 17.6055C127.479 16.8822 127.334 16.0865 127.334 15.2185C127.334 14.3608 127.474 13.5703 127.753 12.847C128.042 12.1133 128.445 11.483 128.962 10.956C129.479 10.4187 130.083 10.0053 130.775 9.716C131.468 9.41633 132.227 9.2665 133.054 9.2665C133.87 9.2665 134.599 9.406 135.239 9.685C135.89 9.964 136.438 10.3308 136.882 10.7855C137.327 11.2298 137.647 11.7155 137.843 12.2425L136.2 13.0175C135.952 12.3975 135.555 11.8963 135.007 11.514C134.47 11.1213 133.819 10.925 133.054 10.925C132.289 10.925 131.612 11.1058 131.023 11.4675C130.434 11.8292 129.975 12.3303 129.644 12.971C129.324 13.6117 129.163 14.3608 129.163 15.2185C129.163 16.0762 129.324 16.8305 129.644 17.4815C129.975 18.1222 130.434 18.6233 131.023 18.985C131.612 19.3363 132.289 19.512 133.054 19.512C133.819 19.512 134.47 19.3208 135.007 18.9385C135.555 18.5562 135.952 18.055 136.2 17.435L137.843 18.21C137.647 18.7267 137.327 19.2123 136.882 19.667C136.438 20.1217 135.89 20.4885 135.239 20.7675C134.599 21.0465 133.87 21.186 133.054 21.186ZM139.089 21V9.2665H140.84V14.2575L140.561 14.0405C140.768 13.5135 141.099 13.1157 141.553 12.847C142.008 12.568 142.535 12.4285 143.134 12.4285C143.754 12.4285 144.302 12.5628 144.777 12.8315C145.253 13.1002 145.625 13.4722 145.893 13.9475C146.162 14.4228 146.296 14.9653 146.296 15.575V21H144.56V16.0555C144.56 15.6318 144.478 15.2753 144.312 14.986C144.157 14.6863 143.94 14.459 143.661 14.304C143.382 14.1387 143.062 14.056 142.7 14.056C142.349 14.056 142.029 14.1387 141.739 14.304C141.46 14.459 141.238 14.6863 141.073 14.986C140.918 15.2857 140.84 15.6422 140.84 16.0555V21H139.089ZM151.643 21.186C150.806 21.186 150.062 20.9948 149.411 20.6125C148.77 20.2198 148.269 19.6928 147.907 19.0315C147.546 18.3598 147.365 17.6107 147.365 16.784C147.365 15.9367 147.546 15.1875 147.907 14.5365C148.279 13.8855 148.775 13.374 149.395 13.002C150.015 12.6197 150.718 12.4285 151.503 12.4285C152.134 12.4285 152.697 12.537 153.193 12.754C153.689 12.971 154.107 13.2707 154.448 13.653C154.789 14.025 155.048 14.4538 155.223 14.9395C155.409 15.4252 155.502 15.9418 155.502 16.4895C155.502 16.6238 155.497 16.7633 155.487 16.908C155.476 17.0527 155.456 17.187 155.425 17.311H148.744V15.916H154.433L153.596 16.5515C153.699 16.0452 153.663 15.5957 153.487 15.203C153.322 14.8 153.064 14.4848 152.712 14.2575C152.371 14.0198 151.968 13.901 151.503 13.901C151.038 13.901 150.625 14.0198 150.263 14.2575C149.902 14.4848 149.623 14.8155 149.426 15.2495C149.23 15.6732 149.152 16.1898 149.194 16.7995C149.142 17.3678 149.22 17.8638 149.426 18.2875C149.643 18.7112 149.943 19.0418 150.325 19.2795C150.718 19.5172 151.162 19.636 151.658 19.636C152.165 19.636 152.593 19.5223 152.945 19.295C153.306 19.0677 153.591 18.7732 153.797 18.4115L155.223 19.109C155.058 19.5017 154.8 19.8582 154.448 20.1785C154.107 20.4885 153.694 20.7365 153.208 20.9225C152.733 21.0982 152.211 21.186 151.643 21.186ZM160.73 21.186C159.893 21.186 159.149 20.9948 158.498 20.6125C157.857 20.2198 157.346 19.6928 156.964 19.0315C156.592 18.3702 156.406 17.621 156.406 16.784C156.406 15.9573 156.592 15.2133 156.964 14.552C157.336 13.8907 157.847 13.374 158.498 13.002C159.149 12.6197 159.893 12.4285 160.73 12.4285C161.298 12.4285 161.831 12.5318 162.327 12.7385C162.823 12.9348 163.251 13.2087 163.613 13.56C163.985 13.9113 164.259 14.3195 164.435 14.7845L162.9 15.4975C162.724 15.0635 162.44 14.7173 162.048 14.459C161.665 14.1903 161.226 14.056 160.73 14.056C160.255 14.056 159.826 14.1748 159.444 14.4125C159.072 14.6398 158.777 14.9653 158.56 15.389C158.343 15.8023 158.235 16.2725 158.235 16.7995C158.235 17.3265 158.343 17.8018 158.56 18.2255C158.777 18.6388 159.072 18.9643 159.444 19.202C159.826 19.4397 160.255 19.5585 160.73 19.5585C161.236 19.5585 161.676 19.4293 162.048 19.171C162.43 18.9023 162.714 18.5458 162.9 18.1015L164.435 18.83C164.269 19.2743 164.001 19.6773 163.629 20.039C163.267 20.3903 162.838 20.6693 162.342 20.876C161.846 21.0827 161.309 21.186 160.73 21.186ZM165.681 21V9.2665H167.433V17.125L166.751 16.9545L170.951 12.6145H173.137L169.975 15.978L173.276 21H171.261L168.316 16.5515L169.355 16.412L166.875 19.047L167.433 17.8845V21H165.681ZM177.797 21.186C176.96 21.186 176.216 20.9948 175.565 20.6125C174.924 20.2198 174.423 19.6928 174.061 19.0315C173.699 18.3598 173.519 17.6107 173.519 16.784C173.519 15.9367 173.699 15.1875 174.061 14.5365C174.433 13.8855 174.929 13.374 175.549 13.002C176.169 12.6197 176.872 12.4285 177.657 12.4285C178.287 12.4285 178.851 12.537 179.347 12.754C179.843 12.971 180.261 13.2707 180.602 13.653C180.943 14.025 181.201 14.4538 181.377 14.9395C181.563 15.4252 181.656 15.9418 181.656 16.4895C181.656 16.6238 181.651 16.7633 181.641 16.908C181.63 17.0527 181.61 17.187 181.579 17.311H174.898V15.916H180.587L179.75 16.5515C179.853 16.0452 179.817 15.5957 179.641 15.203C179.476 14.8 179.217 14.4848 178.866 14.2575C178.525 14.0198 178.122 13.901 177.657 13.901C177.192 13.901 176.779 14.0198 176.417 14.2575C176.055 14.4848 175.776 14.8155 175.58 15.2495C175.384 15.6732 175.306 16.1898 175.348 16.7995C175.296 17.3678 175.373 17.8638 175.58 18.2875C175.797 18.7112 176.097 19.0418 176.479 19.2795C176.872 19.5172 177.316 19.636 177.812 19.636C178.318 19.636 178.747 19.5223 179.099 19.295C179.46 19.0677 179.744 18.7732 179.951 18.4115L181.377 19.109C181.212 19.5017 180.953 19.8582 180.602 20.1785C180.261 20.4885 179.848 20.7365 179.362 20.9225C178.887 21.0982 178.365 21.186 177.797 21.186ZM182.9 21V12.6145H184.574V14.304L184.419 14.056C184.605 13.5083 184.905 13.1157 185.318 12.878C185.732 12.63 186.228 12.506 186.806 12.506H187.318V14.1025H186.589C186.011 14.1025 185.541 14.2833 185.179 14.645C184.828 14.9963 184.652 15.5027 184.652 16.164V21H182.9Z" fill="#3A3A3A"></path>
    <path d="M188.505 21V18.985H190.288V21H188.505Z" fill="#3A3A3A"></path>
    <path d="M196.553 21.186C195.747 21.186 195.008 20.9948 194.336 20.6125C193.675 20.2302 193.148 19.7083 192.755 19.047C192.363 18.3857 192.166 17.6365 192.166 16.7995C192.166 15.9522 192.363 15.203 192.755 14.552C193.148 13.8907 193.675 13.374 194.336 13.002C194.998 12.6197 195.737 12.4285 196.553 12.4285C197.38 12.4285 198.118 12.6197 198.769 13.002C199.431 13.374 199.953 13.8907 200.335 14.552C200.728 15.203 200.924 15.9522 200.924 16.7995C200.924 17.6468 200.728 18.4012 200.335 19.0625C199.942 19.7238 199.415 20.2457 198.754 20.628C198.093 21 197.359 21.186 196.553 21.186ZM196.553 19.5585C197.049 19.5585 197.488 19.4397 197.87 19.202C198.253 18.9643 198.552 18.6388 198.769 18.2255C198.997 17.8018 199.11 17.3265 199.11 16.7995C199.11 16.2725 198.997 15.8023 198.769 15.389C198.552 14.9757 198.253 14.6502 197.87 14.4125C197.488 14.1748 197.049 14.056 196.553 14.056C196.067 14.056 195.628 14.1748 195.235 14.4125C194.853 14.6502 194.548 14.9757 194.321 15.389C194.104 15.8023 193.995 16.2725 193.995 16.7995C193.995 17.3265 194.104 17.8018 194.321 18.2255C194.548 18.6388 194.853 18.9643 195.235 19.202C195.628 19.4397 196.067 19.5585 196.553 19.5585ZM202.169 21V12.6145H203.843V14.304L203.688 14.056C203.874 13.5083 204.174 13.1157 204.587 12.878C205 12.63 205.496 12.506 206.075 12.506H206.586V14.1025H205.858C205.279 14.1025 204.809 14.2833 204.447 14.645C204.096 14.9963 203.92 15.5027 203.92 16.164V21H202.169ZM211.365 24.41C210.755 24.41 210.192 24.3118 209.676 24.1155C209.159 23.9192 208.715 23.6453 208.343 23.294C207.971 22.953 207.692 22.55 207.506 22.085L209.118 21.4185C209.262 21.8112 209.526 22.1367 209.908 22.395C210.301 22.6533 210.781 22.7825 211.35 22.7825C211.794 22.7825 212.192 22.6947 212.543 22.519C212.894 22.3537 213.173 22.1057 213.38 21.775C213.587 21.4547 213.69 21.0672 213.69 20.6125V18.7215L214 19.078C213.711 19.6153 213.308 20.0235 212.791 20.3025C212.285 20.5815 211.711 20.721 211.071 20.721C210.296 20.721 209.598 20.5402 208.978 20.1785C208.358 19.8168 207.867 19.3208 207.506 18.6905C207.154 18.0602 206.979 17.3523 206.979 16.567C206.979 15.7713 207.154 15.0635 207.506 14.4435C207.867 13.8235 208.353 13.3327 208.963 12.971C209.572 12.6093 210.27 12.4285 211.055 12.4285C211.696 12.4285 212.264 12.568 212.76 12.847C213.266 13.1157 213.68 13.5083 214 14.025L213.768 14.459V12.6145H215.426V20.6125C215.426 21.3358 215.25 21.9817 214.899 22.55C214.558 23.1287 214.083 23.5833 213.473 23.914C212.863 24.2447 212.161 24.41 211.365 24.41ZM211.272 19.0935C211.737 19.0935 212.15 18.985 212.512 18.768C212.874 18.5407 213.158 18.241 213.365 17.869C213.582 17.4867 213.69 17.0578 213.69 16.5825C213.69 16.1072 213.582 15.6783 213.365 15.296C213.148 14.9137 212.858 14.614 212.497 14.397C212.135 14.1697 211.727 14.056 211.272 14.056C210.797 14.056 210.373 14.1697 210.001 14.397C209.629 14.614 209.335 14.9137 209.118 15.296C208.911 15.668 208.808 16.0968 208.808 16.5825C208.808 17.0475 208.911 17.4712 209.118 17.8535C209.335 18.2358 209.629 18.5407 210.001 18.768C210.373 18.985 210.797 19.0935 211.272 19.0935Z" fill="#3A3A3A"></path>
</svg>
